<svg width="677" height="1278" viewBox="0 0 677 1278" fill="none" xmlns="http://www.w3.org/2000/svg">
<path d="M589.672 1006.35C580.487 966.272 573.734 926.829 561.582 889.126C552.895 862.172 537.792 837.095 523.924 812.083C516.838 799.303 518.79 792.613 531.173 785.875C590.439 753.624 582.376 759.376 590.904 692.472C592.021 683.708 593.379 674.928 593.66 666.124C593.826 660.92 592.095 655.655 591.217 650.417C585.568 651.627 579.211 651.567 574.384 654.254C543.513 671.435 512.602 688.608 482.511 707.096C469.778 714.919 462.377 713.152 453.63 701.526C408.173 641.104 356.474 587.02 291.752 546.681C284.095 541.909 275.964 537.897 268.053 533.533C267.083 534.737 266.113 535.942 265.144 537.147C269.565 542.157 273.993 547.161 278.407 552.177C326.501 606.828 374.856 661.253 422.512 716.284C435.53 731.316 434.923 736.17 417.59 743.371C395.105 752.712 388.619 767.378 389.955 790.949C392.014 827.286 388.693 863.947 391.134 900.237C392.749 924.235 381.996 937.638 363.563 947.991C351.342 954.855 339.623 964.216 323.972 954.38C305.92 943.034 287.911 933.04 288.17 907.265C288.598 864.755 287.128 822.224 287.629 779.716C287.802 765.098 282.634 755.924 270.188 748.962C216.694 719.044 163.431 688.712 110.075 658.547C107.674 657.19 105.251 655.839 102.728 654.735C86.2202 647.516 80.837 650.725 82.8577 668.209C85.4514 690.648 88.7944 713.049 93.0486 735.229C96.3316 752.347 106.869 764.448 122.217 773.402C157.982 794.269 193.069 816.294 228.678 837.431C243.968 846.506 250.668 858.91 250.611 876.924C250.211 1005.06 250.397 1133.19 250.322 1261.33C250.32 1265.99 249.557 1270.66 248.962 1277.46C243.621 1274.4 240.077 1273.06 237.382 1270.73C167.184 1210.07 97.3105 1149.03 26.7924 1088.75C7.60847 1072.35 3.42854 1056.82 12.8626 1031.57C49.745 932.858 54.0829 831.108 32.5066 728.262C27.0736 702.365 21.2726 676.278 12.4082 651.431C-1.85171 611.462 -2.91783 571.862 6.72138 530.949C37.307 401.13 103.983 297.564 223.076 232.068C237.989 223.866 254.004 217.16 270.22 211.989C284.333 207.49 286.44 200.765 282.38 187.397C270.35 147.788 260.108 107.633 247.867 68.0937C243.56 54.1804 246.912 46.4319 259.253 40.1283C281.335 28.8501 303.007 16.7734 324.944 5.20791C337.141 -1.2225 349.346 -0.617542 361.343 6.07215C380.619 16.8211 399.865 27.6251 419.223 38.2243C432.469 45.4765 435.751 55.7173 431.595 70.1994C420.175 109.991 409.771 150.073 398.495 189.908C395.125 201.811 398.176 208.308 410.208 212.488C524.103 252.052 594.208 335.99 641.634 442.448C660.859 485.603 675.122 530.461 676.379 577.984C676.907 597.965 674.981 619.259 668.472 637.976C622.429 770.384 617.314 902.667 665.266 1035.63C667.511 1041.86 670.752 1048.34 670.623 1054.64C670.474 1061.91 669.394 1071.59 664.728 1075.91C642.075 1096.92 617.809 1116.17 594.687 1136.69C583.656 1146.48 578.176 1143.67 573.342 1131.01C558.578 1092.33 543.8 1053.63 527.969 1015.38C521.222 999.081 511.849 983.863 503.669 968.152C501.746 968.906 499.824 969.66 497.902 970.414C499.142 975.737 500.062 981.159 501.672 986.369C516.013 1032.78 530.479 1079.15 544.888 1125.54C545.378 1127.12 545.622 1128.77 546.046 1130.37C553.277 1157.67 551.903 1180.22 524.72 1199.01C495.354 1219.31 469.772 1245.08 442.474 1268.39C439.289 1271.11 435.683 1273.33 429.633 1277.69C429.226 1269.5 428.739 1264.24 428.738 1258.99C428.72 1129.75 428.978 1000.51 428.481 871.273C428.423 856.024 432.854 846.211 446.849 839.831C457.353 835.043 467.398 829.002 477.003 822.559C486.742 816.026 492.687 817.567 497.472 828.324C522.343 884.23 547.495 940.01 572.498 995.857C574.522 1000.38 575.195 1006.02 578.388 1009.29C579.983 1010.92 585.856 1008.39 589.672 1006.35Z" fill="black"/>
</svg>
